<svg xmlns="http://www.w3.org/2000/svg" width="56" height="56" fill="none"><g clip-path="url(#a)"><path fill="#00008F" d="M56 0H0v56h56V0Z"/><path fill="#FF1721" d="M34.702 27.656 56 0h-3.145L31.486 27.656h3.216Z"/><path fill="#fff" d="M42.79 39.997c.976 2.73 2.987 9.837 3.787 10.403h-5.28a8.806 8.806 0 0 0-.249-1.863c-.227-.813-2.137-6.957-2.137-6.957h-8.388l-1.318 1.87s1.584 4.957 1.682 5.2c.17.439.927 1.75.927 1.75h-5.06s-.131-.757-.18-1.072c-.04-.255-.48-1.65-.48-1.65s-1.147 1.257-1.46 1.84c-.315.581-.455.882-.455.882H20.22s-.132-.757-.181-1.072c-.039-.255-.523-1.762-.523-1.762s-1.108 1.346-1.424 1.927c-.313.583-.448.907-.448.907h-3.915s1.106-1.053 1.493-1.505c.652-.767 3.082-3.943 3.082-3.943l-.975-3.372H9.006s-4.746 6.236-4.933 6.429c-.19.19-1.573 2.175-1.604 2.391H0v-1.57c.03-.033.063-.065.097-.095.077-.056 3.598-4.427 6.834-8.738 2.907-3.76 5.635-7.415 5.874-7.763.58-.842 1.415-2.66 1.415-2.66h4.303s.134 1.672.26 2.078c.111.359 2.733 8.961 2.794 9.054l1.45-1.854-2.478-7.628s-.58-1.436-.77-1.65h5.027a4.38 4.38 0 0 0 .164 1.366c.205.63 1.282 4.517 1.282 4.517s3.428-4.297 3.629-4.606c.244-.385.389-.823.424-1.278h4.188s-.767.56-2.11 2.26c-.452.572-4.875 6.193-4.875 6.193s.386 1.316.574 1.97c.051.189.087.316.087.33 0 .006.097-.114.265-.33 1.141-1.445 6.332-8.251 6.646-8.834.254-.47.627-1.006.846-1.589h4.086s.095 1.22.22 1.558l2.558 8.866Zm-6.218-6.443c-.6 1.29-4.132 5.59-4.132 5.59h5.593s-1.084-3.338-1.273-4.09a5.974 5.974 0 0 1-.11-1.463c0-.069-.013-.18-.078-.037Zm-21.49 0c-.6 1.29-4.13 5.59-4.13 5.59h5.592s-1.083-3.338-1.272-4.09a5.969 5.969 0 0 1-.11-1.463c0-.069-.014-.18-.08-.037Zm8.421 13.036 1.54-2.114c-.142-.153-1.01-2.782-1.01-2.782l-1.488 1.93.958 2.966Z"/></g><defs><clipPath id="a"><path fill="#fff" d="M0 0h56v56H0z"/></clipPath></defs></svg>